With the voices of Brad Dourif, Jennifer Tilly and Billy Boyd

De goedaardige pop Glen is een wees, voortgekomen uit de bizarre relatie tussen de duivelse moordlustige pop Chucky en zijn minstens zo gestoorde bruid Tiffany. Wanneer er plannen zijn om een film te maken over de gruwelijke misdaden van zijn ouders, vertrekt Glen naar Hollywood om zijn bloeddorstige vader en moeder opnieuw tot leven te wekken. Het gezin blijkt echter niet zo goed met elkaar overweg te kunnen. Chucky kan niet geloven dat zijn zoon niet te porren is voor een goede moordpartij. En Tiffany kan niet geloven dat haar favoriete actrice Jennifer Tilly in de film zal meespelen!

Chuck (Brad Dourif) and Tiff (Jennifer Tilly) return, resurrected by their son (Billy Boyd), and hit Hollywood in the fifth film of the CHILD'S PLAY series.

------------------ Dutch Friends ------------------
You can find my Friends at: http://www.Film-Test.nl 
------ They got my dutch subs ----- and more ------

General:

Complete name                    : Child's Play 5\Seed of Chucky.avi
Format                           : AVI
Format/Info                      : Audio Video Interleave
File size                        : 1.37 GiB
Duration                         : 1h 22mn
Overall bit rate                 : 2 372 Kbps

Video:

Format                           : MPEG-4 Visual
Format profile                   : Simple@L3
Format settings, BVOP            : No
Format settings, QPel            : No
Format settings, GMC             : No warppoints
Format settings, Matrix          : Default (H.263)
Codec ID                         : XVID
Codec ID/Hint                    : XviD
Duration                         : 1h 22mn
Bit rate                         : 2 138 Kbps
Width                            : 652 pixels
Height                           : 352 pixels
Display aspect ratio             : 1.852
Frame rate                       : 25.000 fps
Color space                      : YUV
Chroma subsampling               : 4:2:0
Bit depth                        : 8 bits
Scan type                        : Progressive
Bits/(Pixel*Frame)               : 0.373
Stream size                      : 1.23 GiB (90%)
Writing library                  : XviD 1.1.2 (UTC 2006-11-01)

Audio:

Format                           : AC-3
Format/Info                      : Audio Coding 3
Mode extension                   : CM (complete main)
Codec ID                         : 2000
Duration                         : 1h 22mn
Bit rate mode                    : Constant
Bit rate                         : 224 Kbps
Channel(s)                       : 2 channels
Channel positions                : Front: L R
Sampling rate                    : 48.0 KHz
Bit depth                        : 16 bits
Stream size                      : 132 MiB (9%)
Alignment                        : Aligned on interleaves
Interleave, duration             : 32 ms (0.80 video frame)
Interleave, preload duration     : 32 ms

